<?xml version="1.0" standalone="no"?>
<!DOCTYPE svg PUBLIC "-//W3C//DTD SVG 20010904//EN"
 "http://www.w3.org/TR/2001/REC-SVG-20010904/DTD/svg10.dtd">
<svg version="1.0" xmlns="http://www.w3.org/2000/svg"
 width="1500.000000pt" height="1500.000000pt" viewBox="0 0 1500.000000 1500.000000"
 preserveAspectRatio="xMidYMid meet">

<g transform="translate(0.000000,1500.000000) scale(0.100000,-0.100000)"
fill="#000000" stroke="none">
<path d="M4610 13971 c-74 -11 -111 -32 -136 -78 -50 -90 -47 -391 6 -730 82
-530 308 -991 640 -1307 169 -160 302 -253 525 -366 406 -206 871 -332 1470
-396 196 -21 834 -38 817 -22 -4 3 -400 310 -881 682 -481 371 -882 688 -892
703 -62 93 34 215 169 215 32 0 73 -7 92 -15 19 -8 428 -320 909 -692 481
-372 879 -679 884 -682 17 -10 0 417 -22 562 -111 749 -469 1313 -1045 1642
-193 111 -406 203 -636 273 -320 99 -606 153 -1022 195 -171 18 -790 29 -878
16z"/>
<path d="M9890 13104 c-19 -2 -91 -9 -160 -14 -368 -32 -749 -132 -1012 -267
-117 -59 -271 -159 -308 -198 l-23 -25 36 -97 c58 -155 96 -287 127 -448 17
-82 33 -166 37 -186 l8 -36 249 193 c178 138 260 195 292 204 122 34 255 -38
258 -140 1 -67 19 -51 -573 -509 l-211 -163 0 -102 c0 -95 -10 -191 -25 -227
-5 -14 9 -13 142 2 489 59 866 181 1148 373 118 80 294 257 369 369 103 154
185 344 226 522 35 151 73 453 65 523 -16 151 -50 199 -153 221 -48 10 -399
13 -492 5z"/>
<path d="M7405 10683 c-64 -14 -115 -37 -137 -61 -25 -26 -48 -86 -48 -124 0
-19 30 -24 46 -8 6 6 46 4 114 -6 58 -9 127 -14 155 -11 27 2 79 0 115 -5 36
-5 116 -11 178 -13 66 -2 119 -9 127 -15 9 -8 29 -9 55 -5 22 4 79 2 127 -5
49 -6 183 -13 298 -16 116 -3 260 -7 320 -9 61 -1 175 -8 255 -14 80 -6 197
-15 261 -19 64 -5 122 -13 130 -17 13 -9 171 -22 369 -31 58 -3 111 -11 119
-17 8 -7 50 -13 95 -13 166 -3 333 -16 380 -30 27 -8 86 -14 130 -14 45 0 106
-7 136 -15 30 -8 83 -15 117 -15 62 0 63 0 94 43 57 77 89 159 89 230 0 84
-24 122 -105 162 l-60 30 -1670 1 c-918 1 -1679 0 -1690 -3z"/>
<path d="M6176 9625 c4 -8 10 -15 15 -15 4 0 25 -34 45 -76 21 -45 64 -107
103 -152 37 -43 77 -94 90 -114 12 -21 24 -38 26 -38 2 0 -9 28 -24 63 -16 34
-31 75 -35 92 -4 16 -11 32 -15 35 -16 10 -59 88 -77 138 -18 50 -21 53 -70
67 -64 18 -65 18 -58 0z"/>
<path d="M8621 8764 c215 -244 278 -315 353 -401 48 -57 92 -103 96 -103 16 0
55 42 241 255 l184 210 -55 5 c-30 3 -61 9 -67 13 -7 5 -70 10 -140 13 -71 2
-182 6 -248 9 -66 2 -172 6 -235 7 -63 2 -124 8 -135 12 -17 8 -16 5 6 -20z"/>
<path d="M7212 8420 c-18 -4 -35 -10 -37 -12 -3 -2 10 -18 28 -35 38 -36 107
-52 107 -25 0 14 -56 85 -63 81 -1 -1 -17 -5 -35 -9z"/>
<path d="M11090 7745 c-19 -13 -47 -26 -62 -30 -30 -7 -48 -25 -25 -25 8 0 28
-3 45 -6 27 -6 33 -2 58 35 15 23 25 43 23 45 -2 2 -20 -7 -39 -19z"/>
<path d="M8865 7234 c-211 -12 -515 -51 -935 -119 -209 -34 -369 -57 -730
-104 -481 -62 -531 -67 -1130 -100 -989 -56 -1185 -75 -1441 -140 -178 -46
-307 -112 -503 -261 -342 -258 -855 -805 -1292 -1375 -55 -71 -103 -135 -107
-141 -4 -6 63 -69 161 -151 219 -183 1464 -1217 1522 -1265 l45 -36 60 49
c130 108 429 328 605 444 297 195 543 323 738 382 l87 26 619 7 c341 5 671 11
735 14 64 3 267 13 451 21 1062 48 1128 54 1390 121 169 43 607 193 715 244
11 5 43 18 71 29 341 131 1089 527 1529 811 363 233 711 494 762 572 22 32 25
46 21 100 -5 79 -28 127 -90 189 -121 121 -394 185 -639 150 -249 -36 -584
-160 -1094 -406 -874 -422 -1073 -487 -1615 -531 -358 -28 -908 1 -1323 71
-48 8 -92 15 -99 15 -68 0 185 73 587 170 270 65 409 100 575 146 66 18 208
81 302 134 283 161 458 397 458 620 0 139 -62 242 -175 290 -45 19 -158 30
-260 24z"/>
<path d="M11550 3098 c-52 -28 -50 10 -47 -1075 l2 -1012 23 -23 c19 -20 33
-23 98 -23 71 0 77 2 100 28 l24 28 0 1014 0 1014 -24 27 c-20 24 -32 28 -87
31 -40 3 -73 -1 -89 -9z"/>
<path d="M10792 3053 c-110 -54 -131 -196 -41 -277 70 -64 157 -61 225 8 67
67 72 154 11 223 -54 61 -128 79 -195 46z"/>
<path d="M12332 3053 c-110 -54 -131 -196 -41 -277 70 -64 157 -61 225 8 67
67 72 154 11 223 -54 61 -128 79 -195 46z"/>
<path d="M8919 3025 c-14 -8 -31 -27 -38 -42 -8 -21 -11 -283 -9 -1000 l3
-972 23 -23 23 -23 412 0 c395 0 416 1 502 23 326 82 499 306 482 622 -9 149
-52 248 -148 334 -46 42 -162 100 -221 111 -21 4 -38 10 -38 14 0 3 25 19 55
34 172 91 261 317 210 535 -45 192 -174 312 -400 374 -74 20 -107 22 -455 25
-315 3 -379 1 -401 -12z m798 -238 c80 -27 142 -74 177 -137 30 -53 31 -60 30
-170 0 -85 -5 -125 -17 -152 -39 -85 -118 -144 -225 -167 -31 -6 -156 -11
-302 -11 l-250 0 0 331 0 331 268 -4 c215 -4 277 -8 319 -21z m37 -862 c96
-18 153 -43 206 -91 65 -59 92 -122 98 -230 11 -205 -69 -323 -261 -387 -56
-19 -92 -21 -364 -25 l-303 -4 0 376 0 376 274 0 c198 0 295 -4 350 -15z"/>
<path d="M2440 1975 l0 -1015 210 0 210 0 0 430 0 430 445 0 445 0 0 175 0
175 -445 0 -445 0 0 235 0 235 510 0 510 0 0 175 0 175 -720 0 -720 0 0 -1015z"/>
<path d="M4319 2484 c-99 -17 -173 -45 -246 -93 -114 -74 -173 -183 -198 -363
l-6 -48 183 0 184 0 12 46 c17 62 58 117 107 146 36 21 53 23 160 23 109 0
124 -2 165 -25 64 -36 93 -83 87 -142 -5 -61 -29 -96 -81 -119 -24 -10 -139
-35 -257 -54 -235 -40 -334 -68 -413 -119 -112 -71 -168 -167 -187 -319 -19
-153 21 -287 111 -371 93 -87 195 -118 385 -118 177 1 306 42 408 132 l45 40
12 -70 12 -70 185 0 184 0 -4 553 c-3 543 -4 553 -27 631 -72 245 -270 358
-624 355 -66 0 -155 -7 -197 -15z m458 -905 c-4 -102 -9 -128 -31 -174 -37
-74 -96 -131 -174 -168 -60 -28 -77 -32 -157 -32 -73 0 -97 4 -125 20 -51 30
-74 76 -74 149 1 136 64 184 317 242 84 19 172 45 197 58 25 13 47 25 49 25 2
1 1 -53 -2 -120z"/>
<path d="M6010 2489 c-78 -15 -151 -58 -222 -131 l-68 -70 0 86 0 86 -185 0
-185 0 0 -750 0 -750 194 0 195 0 3 443 c4 385 6 449 21 494 27 80 73 133 151
173 67 34 72 35 187 35 l119 0 0 198 0 197 -82 -1 c-46 -1 -103 -5 -128 -10z"/>
<path d="M7012 2490 c-113 -24 -209 -92 -275 -195 l-32 -50 -3 108 -3 107
-184 0 -185 0 0 -750 0 -750 195 0 195 0 0 468 c0 257 5 494 10 527 13 81 47
144 98 179 38 27 52 30 135 34 81 3 97 1 137 -20 54 -28 85 -71 99 -139 7 -32
11 -231 11 -549 l0 -500 195 0 195 0 0 473 c0 524 3 550 63 640 49 73 97 101
183 105 84 5 134 -16 183 -75 66 -80 65 -75 69 -635 l3 -508 189 0 190 0 0
544 c0 325 -4 565 -10 597 -17 90 -73 194 -138 258 -105 102 -231 147 -392
139 -173 -9 -269 -65 -367 -214 -12 -18 -14 -18 -30 6 -47 67 -130 142 -190
172 -58 28 -73 31 -181 34 -64 2 -136 -1 -160 -6z"/>
<path d="M10791 2456 c-51 -28 -50 -12 -51 -738 0 -504 3 -684 12 -703 16 -35
57 -55 113 -55 56 0 97 20 113 55 9 19 12 199 12 700 0 501 -3 681 -12 700 -7
15 -24 33 -39 41 -35 18 -116 18 -148 0z"/>
<path d="M12331 2456 c-51 -28 -50 -12 -51 -738 0 -504 3 -684 12 -703 16 -35
57 -55 113 -55 56 0 97 20 113 55 9 19 12 199 12 700 0 501 -3 681 -12 700 -7
15 -24 33 -39 41 -35 18 -116 18 -148 0z"/>
</g>
</svg>
